<?xml version="1.0" encoding="utf-8"?>
<!-- Generator: Adobe Illustrator 27.5.0, SVG Export Plug-In . SVG Version: 6.00 Build 0)  -->
<svg version="1.1" id="Layer_1" xmlns="http://www.w3.org/2000/svg" xmlns:xlink="http://www.w3.org/1999/xlink" x="0px" y="0px"
	 viewBox="0 0 199.33 115" style="enable-background:new 0 0 199.33 115;" xml:space="preserve">
<style type="text/css">
	.st0{fill:#EAB94F;}
</style>
<path class="st0" d="M42.59,73.63c0.04,0.04,0.07,0.08,0.11,0.12c1.84-1.44,3.75-2.72,5.6-3.82c-3-5.97-6.54-9.16-6.56-9.18
	c0,0,0,0,0,0c0.97,0.46,1.93,0.95,2.87,1.46c0.01,0,0.02,0.01,0.03,0.01c0.23,0.12,0.45,0.25,0.67,0.37
	c0.02,0.01,0.04,0.02,0.05,0.03c1.16,0.65,2.29,1.34,3.4,2.07c0.01,0.01,0.02,0.01,0.03,0.02c0.21,0.14,0.43,0.29,0.64,0.43
	c0.01,0.01,0.03,0.02,0.04,0.03c1.09,0.74,2.15,1.52,3.18,2.33c2.41,1.9,4.66,3.99,6.73,6.25c0.83-0.65,1.67-1.26,2.51-1.84
	c-1.16-3.89-2.81-7.25-4.01-9.41c2.84,2.09,5.48,4.41,7.91,6.95c10.42,10.88,16.82,25.64,16.82,41.9c0,1.22-0.04,2.43-0.11,3.64
	c23.55-8.4,46.51-11.24,65.11-8.89l-27.45-16.13c-2.38,6.02-8.25,10.28-15.12,10.28c-8.97,0-16.25-7.28-16.25-16.25
	c0-8.98,7.28-16.25,16.25-16.25c3.47,0,6.69,1.09,9.33,2.95c2.67-3.51,13.27-6.13,25.95-6.13c14.69,0,26.6,3.52,26.6,7.86
	c0,0.38-0.09,0.76-0.27,1.13l32.67-16.04l-32.67-16.04c0.18,0.37,0.27,0.74,0.27,1.13c0,4.34-11.91,7.86-26.6,7.86
	c-12.68,0-23.28-2.62-25.95-6.13c-2.64,1.86-5.86,2.95-9.33,2.95c-8.97,0-16.25-7.28-16.25-16.25c0-8.97,7.28-16.25,16.25-16.25
	c6.87,0,12.74,4.26,15.12,10.28l27.45-16.13c-18.6,2.35-41.56-0.5-65.11-8.89c0.07,1.2,0.11,2.41,0.11,3.64
	c0,16.26-6.4,31.02-16.82,41.9c-2.1-1.21-4.3-2.64-6.41-4.3c-2.06,2.25-4.3,4.32-6.7,6.22c-3.06-1.52-6.63-3.58-9.99-6.22
	c-0.04,0.04-0.07,0.08-0.11,0.12c-5.88,6.38-14.2,9.96-22.87,9.96H0v12.33h19.72C28.4,63.67,36.71,67.25,42.59,73.63z M130.09,98.21
	l8.61,5.06c-5.88-0.21-12.04,0.03-18.37,0.72c4.32-1.33,8.85-2.06,13.36-2.28C132.48,100.54,131.29,99.38,130.09,98.21z
	 M169.36,67.85c5.64-2.76,11.55-4.98,17.61-6.62l-18.46,9.06c-1.81-3.54-8.15-5.82-15.79-6.96
	C158.57,62.45,164.78,64.07,169.36,67.85z M121.74,18.81l11.4-3.81l-12.05,7.08c-2.63-4.74-7.18-8.03-12.46-9.06
	C113.81,13.04,118.48,15.27,121.74,18.81z M101.54,65.09c1.46,0,2.88,0.19,4.23,0.56c-0.24-0.01-0.48-0.02-0.71-0.02
	c-10.12,0-18.35,8.23-18.35,18.35c0,2.06,0.34,4.05,0.97,5.9c-1.53-2.48-2.41-5.4-2.41-8.53C85.27,72.38,92.55,65.09,101.54,65.09z
	 M24.52,60.59c4.88,0.25,9.85,2.29,12.88,6.05c-5.24-3.27-11.37-5.06-17.68-5.06h-3.79C18.74,60.84,21.62,60.44,24.52,60.59z"/>
</svg>
